<?xml version="1.0" encoding="UTF-8"?>
<!DOCTYPE svg PUBLIC "-//W3C//DTD SVG 1.1//EN" "http://www.w3.org/Graphics/SVG/1.1/DTD/svg11.dtd">
<svg xmlns="http://www.w3.org/2000/svg" version="1.1" width="273px" height="273px" style="shape-rendering:geometricPrecision; text-rendering:geometricPrecision; image-rendering:optimizeQuality; fill-rule:evenodd; clip-rule:evenodd" xmlns:xlink="http://www.w3.org/1999/xlink">
<g><path style="opacity:1" fill="#ffffff" d="M 200.5,16.5 C 201.344,18.7593 203.011,19.7593 205.5,19.5C 205.5,20.5 205.5,21.5 205.5,22.5C 208.167,23.1667 210.833,23.8333 213.5,24.5C 216.533,26.016 219.2,28.016 221.5,30.5C 221.973,31.9063 222.973,32.573 224.5,32.5C 226.833,34.1667 228.833,36.1667 230.5,38.5C 231.167,39.8333 232.167,40.8333 233.5,41.5C 235.167,42.5 236.5,43.8333 237.5,45.5C 238.419,48.0892 240.086,50.0892 242.5,51.5C 243.08,53.7488 244.413,55.4154 246.5,56.5C 246.427,58.0269 247.094,59.0269 248.5,59.5C 248.427,61.0269 249.094,62.0269 250.5,62.5C 250.427,64.0269 251.094,65.0269 252.5,65.5C 252.75,67.674 253.75,69.3406 255.5,70.5C 256.338,70.8417 256.672,71.5084 256.5,72.5C 257.672,74.8439 257.672,77.1772 256.5,79.5C 257.691,79.4047 259.025,79.738 260.5,80.5C 261.042,83.9122 262.375,86.9122 264.5,89.5C 264.171,92.2282 264.837,94.5615 266.5,96.5C 266.5,103.5 266.5,110.5 266.5,117.5C 265.319,127.71 262.319,137.377 257.5,146.5C 256.094,146.973 255.427,147.973 255.5,149.5C 254.094,149.973 253.427,150.973 253.5,152.5C 250.833,155.833 247.833,158.833 244.5,161.5C 243.178,161.67 242.011,161.337 241,160.5C 241.355,161.959 241.189,163.293 240.5,164.5C 231.946,170.825 222.28,173.325 211.5,172C 190.89,169.551 176.223,159.051 167.5,140.5C 166.739,136.216 165.405,132.216 163.5,128.5C 162.198,123.067 162.198,117.734 163.5,112.5C 165.033,108.104 165.7,103.437 165.5,98.5C 165.498,94.9825 165.165,91.6491 164.5,88.5C 164.932,85.1226 164.265,82.1226 162.5,79.5C 162.5,79.1667 162.5,78.8333 162.5,78.5C 162.603,75.7814 162.269,73.1147 161.5,70.5C 161.253,69.2867 160.586,68.62 159.5,68.5C 149.211,43.1694 130.545,28.0027 103.5,23C 93.5407,21.7443 83.5407,21.2443 73.5,21.5C 71.396,21.7989 69.396,21.4656 67.5,20.5C 67.8627,19.8165 68.1961,19.1499 68.5,18.5C 100.155,0.763394 133.822,-4.06994 169.5,4C 180.591,6.55443 190.925,10.7211 200.5,16.5 Z"/></g>
<g><path style="opacity:1" fill="#ffffff" d="M 68.5,18.5 C 68.1961,19.1499 67.8627,19.8165 67.5,20.5C 69.396,21.4656 71.396,21.7989 73.5,21.5C 68.6542,22.7885 63.6542,23.6218 58.5,24C 61.7405,21.9094 65.0738,20.0761 68.5,18.5 Z"/></g>
<g><path style="opacity:1" fill="#ffffff" d="M 200.5,16.5 C 205.368,18.3815 209.701,21.0482 213.5,24.5C 210.833,23.8333 208.167,23.1667 205.5,22.5C 205.5,21.5 205.5,20.5 205.5,19.5C 203.011,19.7593 201.344,18.7593 200.5,16.5 Z"/></g>
<g><path style="opacity:1" fill="#ffffff" d="M 127.5,49.5 C 127.992,51.8185 128.992,53.8185 130.5,55.5C 130.402,57.5529 131.069,59.2196 132.5,60.5C 135.336,75.8872 133.336,90.5539 126.5,104.5C 125.094,104.973 124.427,105.973 124.5,107.5C 124.5,108.167 124.167,108.5 123.5,108.5C 122.094,108.973 121.427,109.973 121.5,111.5C 118.905,115.126 115.572,117.792 111.5,119.5C 109.61,119.703 108.11,119.037 107,117.5C 106.5,118.5 106,119.5 105.5,120.5C 102.094,121.991 98.7609,123.657 95.5,125.5C 93.5794,126.324 92.246,127.657 91.5,129.5C 85.4135,132.71 79.0802,135.543 72.5,138C 71.5769,140.041 71.2436,142.208 71.5,144.5C 70.5041,144.414 69.6708,144.748 69,145.5C 68.1627,143.993 66.9961,143.493 65.5,144C 66.4061,145.699 66.7394,147.533 66.5,149.5C 64.8532,152.473 62.8532,155.14 60.5,157.5C 58.7497,158.659 57.7497,160.326 57.5,162.5C 52.8189,169.702 49.9856,177.702 49,186.5C 47.8949,196.249 49.0615,205.582 52.5,214.5C 52.2594,216.898 52.9261,218.898 54.5,220.5C 55.404,221.209 55.7373,222.209 55.5,223.5C 55.4021,225.553 56.0687,227.22 57.5,228.5C 59.6744,231.515 61.3411,234.849 62.5,238.5C 62.427,240.027 63.0937,241.027 64.5,241.5C 64.427,243.027 65.0937,244.027 66.5,244.5C 66.427,246.027 67.0937,247.027 68.5,247.5C 70.6326,249.091 72.2993,251.091 73.5,253.5C 73.5,254.833 72.8333,255.5 71.5,255.5C 54.0502,246.101 39.3836,233.434 27.5,217.5C 27.3304,214.796 25.9971,213.129 23.5,212.5C 18.6308,205.295 14.6308,197.628 11.5,189.5C 10.4332,183.61 8.43321,178.276 5.5,173.5C 5.5,173.167 5.5,172.833 5.5,172.5C 5.94649,169.99 5.27983,167.99 3.5,166.5C 3.5,165.833 3.5,165.167 3.5,164.5C 0.977433,145.843 0.977433,127.176 3.5,108.5C 3.5,108.167 3.5,107.833 3.5,107.5C 4.92381,105.485 5.59047,103.152 5.5,100.5C 5.36596,98.7085 5.69929,97.0418 6.5,95.5C 9.65246,91.0594 11.6525,86.0594 12.5,80.5C 12.6596,78.847 13.3263,77.5137 14.5,76.5C 16.9586,74.948 18.4586,72.6146 19,69.5C 22.044,68.1971 23.2107,65.8638 22.5,62.5C 38.2039,35.3144 61.8706,23.4811 93.5,27C 108.776,28.8126 120.109,36.3126 127.5,49.5 Z"/></g>
<g><path style="opacity:0.075" fill="#ffffff" d="M 221.5,30.5 C 223.027,30.427 224.027,31.0937 224.5,32.5C 222.973,32.573 221.973,31.9063 221.5,30.5 Z"/></g>
<g><path style="opacity:0.071" fill="#ffffff" d="M 230.5,38.5 C 232.5,38.5 233.5,39.5 233.5,41.5C 232.167,40.8333 231.167,39.8333 230.5,38.5 Z"/></g>
<g><path style="opacity:0.337" fill="#ffffff" d="M 237.5,45.5 C 239.914,46.9108 241.581,48.9108 242.5,51.5C 240.086,50.0892 238.419,48.0892 237.5,45.5 Z"/></g>
<g><path style="opacity:0.224" fill="#ffffff" d="M 127.5,49.5 C 129.539,50.911 130.539,52.911 130.5,55.5C 128.992,53.8185 127.992,51.8185 127.5,49.5 Z"/></g>
<g><path style="opacity:0.761" fill="#ffffff" d="M 242.5,51.5 C 244.587,52.5846 245.92,54.2512 246.5,56.5C 244.413,55.4154 243.08,53.7488 242.5,51.5 Z"/></g>
<g><path style="opacity:0.145" fill="#ffffff" d="M 130.5,55.5 C 131.931,56.7804 132.598,58.4471 132.5,60.5C 131.069,59.2196 130.402,57.5529 130.5,55.5 Z"/></g>
<g><path style="opacity:0.341" fill="#ffffff" d="M 246.5,56.5 C 247.906,56.9731 248.573,57.9731 248.5,59.5C 247.094,59.0269 246.427,58.0269 246.5,56.5 Z"/></g>
<g><path style="opacity:0.337" fill="#ffffff" d="M 248.5,59.5 C 249.906,59.9731 250.573,60.9731 250.5,62.5C 249.094,62.0269 248.427,61.0269 248.5,59.5 Z"/></g>
<g><path style="opacity:0.337" fill="#ffffff" d="M 250.5,62.5 C 251.906,62.9731 252.573,63.9731 252.5,65.5C 251.094,65.0269 250.427,64.0269 250.5,62.5 Z"/></g>
<g><path style="opacity:1" fill="#ffffff" d="M 22.5,62.5 C 23.2107,65.8638 22.044,68.1971 19,69.5C 18.4586,72.6146 16.9586,74.948 14.5,76.5C 16.1588,71.1734 18.8255,66.5067 22.5,62.5 Z"/></g>
<g><path style="opacity:0.231" fill="#ffffff" d="M 252.5,65.5 C 254.25,66.6594 255.25,68.326 255.5,70.5C 253.75,69.3406 252.75,67.674 252.5,65.5 Z"/></g>
<g><path style="opacity:0.906" fill="#ffffff" d="M 159.5,68.5 C 160.586,68.62 161.253,69.2867 161.5,70.5C 162.269,73.1147 162.603,75.7814 162.5,78.5C 161.21,75.3582 160.21,72.0248 159.5,68.5 Z"/></g>
<g><path style="opacity:1" fill="#ffffff" d="M 256.5,72.5 C 258.387,74.7886 259.721,77.4553 260.5,80.5C 259.025,79.738 257.691,79.4047 256.5,79.5C 257.672,77.1772 257.672,74.8439 256.5,72.5 Z"/></g>
<g><path style="opacity:0.957" fill="#ffffff" d="M 12.5,80.5 C 11.6525,86.0594 9.65246,91.0594 6.5,95.5C 7.73763,90.1049 9.73763,85.1049 12.5,80.5 Z"/></g>
<g><path style="opacity:0.231" fill="#ffffff" d="M 260.5,80.5 C 262.625,83.0878 263.958,86.0878 264.5,89.5C 262.375,86.9122 261.042,83.9122 260.5,80.5 Z"/></g>
<g><path style="opacity:0.745" fill="#ffffff" d="M 162.5,79.5 C 164.265,82.1226 164.932,85.1226 164.5,88.5C 164.5,90.8333 164.5,93.1667 164.5,95.5C 163.542,90.3425 162.875,85.0092 162.5,79.5 Z"/></g>
<g><path style="opacity:0.227" fill="#ffffff" d="M 132.5,60.5 C 136.483,72.7421 135.983,85.0754 131,97.5C 129.974,100.239 128.474,102.572 126.5,104.5C 133.336,90.5539 135.336,75.8872 132.5,60.5 Z"/></g>
<g><path style="opacity:0.788" fill="#ffffff" d="M 164.5,88.5 C 165.165,91.6491 165.498,94.9825 165.5,98.5C 165.7,103.437 165.033,108.104 163.5,112.5C 163.532,106.811 163.866,101.145 164.5,95.5C 164.5,93.1667 164.5,90.8333 164.5,88.5 Z"/></g>
<g><path style="opacity:0.259" fill="#ffffff" d="M 264.5,89.5 C 265.924,91.5145 266.59,93.8478 266.5,96.5C 264.837,94.5615 264.171,92.2282 264.5,89.5 Z"/></g>
<g><path style="opacity:0.745" fill="#ffffff" d="M 5.5,100.5 C 5.59047,103.152 4.92381,105.485 3.5,107.5C 3.40953,104.848 4.07619,102.515 5.5,100.5 Z"/></g>
<g><path style="opacity:0.137" fill="#ffffff" d="M 126.5,104.5 C 126.573,106.027 125.906,107.027 124.5,107.5C 124.427,105.973 125.094,104.973 126.5,104.5 Z"/></g>
<g><path style="opacity:0.063" fill="#ffffff" d="M 123.5,108.5 C 123.573,110.027 122.906,111.027 121.5,111.5C 121.427,109.973 122.094,108.973 123.5,108.5 Z"/></g>
<g><path style="opacity:0.767" fill="#ffffff" d="M 266.5,96.5 C 268.563,103.436 268.896,110.436 267.5,117.5C 267.167,117.5 266.833,117.5 266.5,117.5C 266.5,110.5 266.5,103.5 266.5,96.5 Z"/></g>
<g><path style="opacity:0.147" fill="#ffffff" d="M 266.5,117.5 C 266.833,117.5 267.167,117.5 267.5,117.5C 267.329,128.35 263.996,138.016 257.5,146.5C 262.319,137.377 265.319,127.71 266.5,117.5 Z"/></g>
<g><path style="opacity:1" fill="#ffffff" d="M 111.5,119.5 C 105.386,123.771 98.7192,127.105 91.5,129.5C 92.246,127.657 93.5794,126.324 95.5,125.5C 98.7609,123.657 102.094,121.991 105.5,120.5C 106,119.5 106.5,118.5 107,117.5C 108.11,119.037 109.61,119.703 111.5,119.5 Z"/></g>
<g><path style="opacity:0.973" fill="#ffffff" d="M 3.5,108.5 C 0.977433,127.176 0.977433,145.843 3.5,164.5C 1.1118,155.293 0.111795,145.793 0.5,136C 0.0900303,126.534 1.09003,117.367 3.5,108.5 Z"/></g>
<g><path style="opacity:0.725" fill="#ffffff" d="M 163.5,128.5 C 165.405,132.216 166.739,136.216 167.5,140.5C 165.194,136.915 163.861,132.915 163.5,128.5 Z"/></g>
<g><path style="opacity:1" fill="#ffffff" d="M 91.5,129.5 C 84.5139,134.002 77.8472,139.002 71.5,144.5C 71.2436,142.208 71.5769,140.041 72.5,138C 79.0802,135.543 85.4135,132.71 91.5,129.5 Z"/></g>
<g><path style="opacity:0.549" fill="#ffffff" d="M 272.5,125.5 C 272.5,134.833 272.5,144.167 272.5,153.5C 272.167,153.5 271.833,153.5 271.5,153.5C 271.826,144.651 271.493,135.984 270.5,127.5C 270.5,126.167 271.167,125.5 272.5,125.5 Z"/></g>
<g><path style="opacity:0.965" fill="#ffffff" d="M 270.5,128.5 C 270.196,131.522 269.696,134.522 269,137.5C 267.125,140.588 265.792,143.921 265,147.5C 264.23,146.402 263.397,146.402 262.5,147.5C 265.464,141.244 268.131,134.911 270.5,128.5 Z"/></g>
<g><path style="opacity:1" fill="#ffffff" d="M 71.5,144.5 C 70.1667,146.5 68.5,148.167 66.5,149.5C 66.7394,147.533 66.4061,145.699 65.5,144C 66.9961,143.493 68.1627,143.993 69,145.5C 69.6708,144.748 70.5041,144.414 71.5,144.5 Z"/></g>
<g><path style="opacity:0.227" fill="#ffffff" d="M 257.5,146.5 C 257.573,148.027 256.906,149.027 255.5,149.5C 255.427,147.973 256.094,146.973 257.5,146.5 Z"/></g>
<g><path style="opacity:0.137" fill="#ffffff" d="M 255.5,149.5 C 255.573,151.027 254.906,152.027 253.5,152.5C 253.427,150.973 254.094,149.973 255.5,149.5 Z"/></g>
<g><path style="opacity:0.137" fill="#ffffff" d="M 60.5,157.5 C 60.2503,159.674 59.2503,161.341 57.5,162.5C 57.7497,160.326 58.7497,158.659 60.5,157.5 Z"/></g>
<g><path style="opacity:1" fill="#ffffff" d="M 270.5,127.5 C 271.493,135.984 271.826,144.651 271.5,153.5C 269.496,158.525 268.496,163.858 268.5,169.5C 266.723,172.505 265.723,175.838 265.5,179.5C 261.559,188.057 257.559,196.724 253.5,205.5C 251.75,206.659 250.75,208.326 250.5,210.5C 250.5,211.167 250.167,211.5 249.5,211.5C 247.674,213.147 246.34,215.147 245.5,217.5C 243.738,218.262 242.738,219.596 242.5,221.5C 242.5,222.167 242.167,222.5 241.5,222.5C 239.086,223.911 237.419,225.911 236.5,228.5C 228.335,237.672 219.002,245.338 208.5,251.5C 207.305,251.322 206.138,250.989 205,250.5C 203.174,251.01 203.007,251.844 204.5,253C 199.793,254.735 195.127,256.569 190.5,258.5C 190.863,259.183 191.196,259.85 191.5,260.5C 177.405,266.69 162.738,270.69 147.5,272.5C 140.167,272.5 132.833,272.5 125.5,272.5C 124.791,271.596 123.791,271.263 122.5,271.5C 121.048,270.698 119.382,270.198 117.5,270C 117.833,269.667 118.167,269.333 118.5,269C 113.481,268.589 108.481,268.089 103.5,267.5C 96.0444,265.611 89.711,261.944 84.5,256.5C 83.0833,253.121 81.0833,250.121 78.5,247.5C 77.914,247.709 77.414,248.043 77,248.5C 76.2411,246.937 75.0744,245.937 73.5,245.5C 70.0482,241.701 67.3815,237.368 65.5,232.5C 65.4484,229.654 64.4484,227.32 62.5,225.5C 61.7659,224.292 61.4326,222.959 61.5,221.5C 60.8905,215.185 60.5572,208.851 60.5,202.5C 62.7837,188.698 69.7837,177.865 81.5,170C 95.1631,161.334 109.83,158.834 125.5,162.5C 126.469,163.309 127.302,164.309 128,165.5C 129.011,164.663 130.178,164.33 131.5,164.5C 133.819,164.992 135.819,165.992 137.5,167.5C 137.973,168.906 138.973,169.573 140.5,169.5C 141.167,169.5 141.5,169.833 141.5,170.5C 141.351,171.552 141.517,172.552 142,173.5C 142.333,173.167 142.667,172.833 143,172.5C 144.791,174.029 146.458,175.696 148,177.5C 148.986,176.829 150.153,176.829 151.5,177.5C 198.25,202.898 235.25,192.898 262.5,147.5C 263.397,146.402 264.23,146.402 265,147.5C 265.792,143.921 267.125,140.588 269,137.5C 269.696,134.522 270.196,131.522 270.5,128.5C 270.5,128.167 270.5,127.833 270.5,127.5 Z"/></g>
<g><path style="opacity:1" fill="#ffffff" d="M 244.5,161.5 C 243.738,163.262 242.404,164.262 240.5,164.5C 241.189,163.293 241.355,161.959 241,160.5C 242.011,161.337 243.178,161.67 244.5,161.5 Z"/></g>
<g><path style="opacity:1" fill="#ffffff" d="M 125.5,162.5 C 127.786,162.595 129.786,163.262 131.5,164.5C 130.178,164.33 129.011,164.663 128,165.5C 127.302,164.309 126.469,163.309 125.5,162.5 Z"/></g>
<g><path style="opacity:0.243" fill="#ffffff" d="M 271.5,153.5 C 271.5,154.167 271.833,154.5 272.5,154.5C 272.5,154.833 272.5,155.167 272.5,155.5C 271.372,160.218 270.039,164.885 268.5,169.5C 268.496,163.858 269.496,158.525 271.5,153.5 Z"/></g>
<g><path style="opacity:0.82" fill="#ffffff" d="M 3.5,166.5 C 5.27983,167.99 5.94649,169.99 5.5,172.5C 4.26162,170.786 3.59495,168.786 3.5,166.5 Z"/></g>
<g><path style="opacity:0.075" fill="#ffffff" d="M 137.5,167.5 C 139.027,167.427 140.027,168.094 140.5,169.5C 138.973,169.573 137.973,168.906 137.5,167.5 Z"/></g>
<g><path style="opacity:0.235" fill="#ffffff" d="M 268.5,169.5 C 268.41,173.214 267.41,176.548 265.5,179.5C 265.723,175.838 266.723,172.505 268.5,169.5 Z"/></g>
<g><path style="opacity:0.996" fill="#ffffff" d="M 141.5,170.5 C 145.392,172.062 148.725,174.395 151.5,177.5C 150.153,176.829 148.986,176.829 148,177.5C 146.458,175.696 144.791,174.029 143,172.5C 142.667,172.833 142.333,173.167 142,173.5C 141.517,172.552 141.351,171.552 141.5,170.5 Z"/></g>
<g><path style="opacity:0.796" fill="#ffffff" d="M 5.5,173.5 C 8.43321,178.276 10.4332,183.61 11.5,189.5C 8.92903,184.463 6.92903,179.129 5.5,173.5 Z"/></g>
<g><path style="opacity:0.227" fill="#ffffff" d="M 265.5,179.5 C 263.094,188.974 259.094,197.641 253.5,205.5C 257.559,196.724 261.559,188.057 265.5,179.5 Z"/></g>
<g><path style="opacity:0.075" fill="#ffffff" d="M 57.5,162.5 C 50.2482,179.239 48.5815,196.573 52.5,214.5C 49.0615,205.582 47.8949,196.249 49,186.5C 49.9856,177.702 52.8189,169.702 57.5,162.5 Z"/></g>
<g><path style="opacity:0.231" fill="#ffffff" d="M 253.5,205.5 C 253.25,207.674 252.25,209.341 250.5,210.5C 250.75,208.326 251.75,206.659 253.5,205.5 Z"/></g>
<g><path style="opacity:0.502" fill="#ffffff" d="M 60.5,202.5 C 60.5572,208.851 60.8905,215.185 61.5,221.5C 60.0776,217.761 59.4109,213.761 59.5,209.5C 59.5034,206.975 59.8367,204.641 60.5,202.5 Z"/></g>
<g><path style="opacity:0.725" fill="#ffffff" d="M 23.5,212.5 C 25.9971,213.129 27.3304,214.796 27.5,217.5C 25.9373,216.055 24.604,214.389 23.5,212.5 Z"/></g>
<g><path style="opacity:0.212" fill="#ffffff" d="M 52.5,214.5 C 53.7384,216.214 54.405,218.214 54.5,220.5C 52.9261,218.898 52.2594,216.898 52.5,214.5 Z"/></g>
<g><path style="opacity:0.137" fill="#ffffff" d="M 249.5,211.5 C 249.155,214.198 247.822,216.198 245.5,217.5C 246.34,215.147 247.674,213.147 249.5,211.5 Z"/></g>
<g><path style="opacity:0.008" fill="#ffffff" d="M 245.5,217.5 C 245.262,219.404 244.262,220.738 242.5,221.5C 242.738,219.596 243.738,218.262 245.5,217.5 Z"/></g>
<g><path style="opacity:0.227" fill="#ffffff" d="M 55.5,223.5 C 56.9313,224.78 57.5979,226.447 57.5,228.5C 56.0687,227.22 55.4021,225.553 55.5,223.5 Z"/></g>
<g><path style="opacity:0.067" fill="#ffffff" d="M 241.5,222.5 C 240.581,225.089 238.914,227.089 236.5,228.5C 237.419,225.911 239.086,223.911 241.5,222.5 Z"/></g>
<g><path style="opacity:0.796" fill="#ffffff" d="M 62.5,225.5 C 64.4484,227.32 65.4484,229.654 65.5,232.5C 63.9348,230.491 62.9348,228.157 62.5,225.5 Z"/></g>
<g><path style="opacity:0.239" fill="#ffffff" d="M 62.5,238.5 C 63.9063,238.973 64.573,239.973 64.5,241.5C 63.0937,241.027 62.427,240.027 62.5,238.5 Z"/></g>
<g><path style="opacity:0.224" fill="#ffffff" d="M 64.5,241.5 C 65.9063,241.973 66.573,242.973 66.5,244.5C 65.0937,244.027 64.427,243.027 64.5,241.5 Z"/></g>
<g><path style="opacity:0.239" fill="#ffffff" d="M 66.5,244.5 C 67.9063,244.973 68.573,245.973 68.5,247.5C 67.0937,247.027 66.427,246.027 66.5,244.5 Z"/></g>
<g><path style="opacity:1" fill="#ffffff" d="M 73.5,245.5 C 75.0744,245.937 76.2411,246.937 77,248.5C 77.414,248.043 77.914,247.709 78.5,247.5C 81.0833,250.121 83.0833,253.121 84.5,256.5C 79.8547,253.855 76.188,250.188 73.5,245.5 Z"/></g>
<g><path style="opacity:0.741" fill="#ffffff" d="M 73.5,253.5 C 81.4556,260.533 80.7889,261.199 71.5,255.5C 72.8333,255.5 73.5,254.833 73.5,253.5 Z"/></g>
<g><path style="opacity:0.98" fill="#ffffff" d="M 208.5,251.5 C 203.316,255.26 197.65,258.26 191.5,260.5C 191.196,259.85 190.863,259.183 190.5,258.5C 195.127,256.569 199.793,254.735 204.5,253C 203.007,251.844 203.174,251.01 205,250.5C 206.138,250.989 207.305,251.322 208.5,251.5 Z"/></g>
<g><path style="opacity:1" fill="#ffffff" d="M 103.5,267.5 C 108.481,268.089 113.481,268.589 118.5,269C 118.167,269.333 117.833,269.667 117.5,270C 119.382,270.198 121.048,270.698 122.5,271.5C 115.8,271.333 109.467,270 103.5,267.5 Z"/></g>
</svg>
